<?xml version="1.0" encoding="utf-8"?>
<!-- Generator: Adobe Illustrator 24.1.1, SVG Export Plug-In . SVG Version: 6.00 Build 0)  -->
<svg version="1.1" id="Capa_1" xmlns="http://www.w3.org/2000/svg" xmlns:xlink="http://www.w3.org/1999/xlink" x="0px" y="0px"
	 viewBox="0 0 723.06 875.05" style="enable-background:new 0 0 723.06 875.05;" xml:space="preserve">
<style type="text/css">
	.st0{fill:#E0393D;}
	.st1{fill:#FDFDFD;}
	.st2{fill:#D55D20;}
	.st3{fill:#C97802;}
	.st4{fill:#FDFCFB;}
	.st5{fill:#1F1310;}
</style>
<g>
	<path class="st0" d="M492.3,310.68c5.19,4.07,10.49,8,15.55,12.23c9.14,7.63,17.83,15.71,26.21,24.2
		c18.72,18.99,34.28,40.28,47.45,63.38c9.03,15.85,16.37,32.48,22.38,49.7c5.09,14.56,8.93,29.46,11.75,44.6
		c2.18,11.71,3.73,23.51,4.44,35.42c0.81,13.49,0.86,26.98-0.01,40.46c-1.26,19.56-4.34,38.82-9.28,57.81
		c-3.57,13.73-8.07,27.13-13.54,40.19c-10.58,25.26-24.26,48.7-41.15,70.34c-15.22,19.49-32.43,36.89-51.75,52.28
		c-22.45,17.89-47.04,32.14-73.48,43.24c-0.81,0.34-1.72,0.43-2.59,0.64c-0.9-0.03-1.79-0.06-2.69-0.09
		c0.02-0.42,0.03-0.84,0.05-1.27c1.35-0.38,3.37,0.9,3.94-1.43c1.08-4.39,4.27-7.67,7.18-10.46c3.66-3.51,6.8-7.41,9.67-11.39
		c1.77-2.46,3.78-4.9,5.53-7.4c1.91-2.74,3.4-6.19,6.42-7.98c1.46-0.86,2.43-1.8,2.99-3.25c0.83-2.15,2.19-3.95,3.99-5.27
		c3.13-2.31,3.93-6.27,6.94-8.9c2.44-2.14,4.75-5.22,6.21-8.45c1.03-2.29,4.02-2.87,4.65-4.83c2.35-7.3,8.92-11.6,12.37-18.23
		c1.86-3.57,5.14-7.06,8.05-10.37c3.8-4.32,7.04-9.12,10.73-13.57c3.46-4.18,5.71-9.37,8.5-14.12c0.02-0.43,0.05-0.87,0.07-1.3
		c1.34-1.05,3.24-1.22,4.08-3.12c1.43-3.24,4.04-5.8,5.68-8.89c1.87-3.54,6.48-5.88,5.09-10.94l0.02-0.02
		c2.45,0.12,3.38-1.17,4.12-3.44c0.84-2.59,2.21-5.15,3.92-7.24c0.74-0.91,1.32-1.54,1.38-2.68c0.13-2.79,0.15-5.54-2.08-7.8
		c-0.49,0.7-0.9,1.9-1.45,1.97c-2.53,0.33-4.57,1.63-6.7,2.81c-4.39,2.42-9.05,1.26-13.08-0.25c-2.23-0.84-5.75-1.41-6.73-3.61
		c-2.07-4.64-7.02-6.12-9.56-10.33c-3.64-6.04-8.39-11.4-12.65-17.07c-0.19-0.26-0.27-0.61-0.36-0.93
		c-0.83-3.06-1.63-6.02-3.62-8.72c-1.06-1.44-2.61-2.82-3.08-4.66c-1.39-5.44-4.29-10.24-6.49-15.32
		c-3.24-7.46-5.94-15.09-8.69-22.72c-0.98-2.72-0.85-6.21-3.87-8.02l-0.01-0.01c0.62-3.15-2.21-5.36-2.42-8.04
		c-0.44-5.6-3.02-10.46-4.58-15.64c-0.89-2.98-0.56-6.71-3.76-8.77l0,0c-0.04-1.91,0.42-4.01-0.23-5.69
		c-1.71-4.43-2.27-9.14-3.71-13.64c-1.93-6.03-3.78-12.13-4.39-18.54c-0.12-1.26-0.53-3.37-2.47-3.99l0,0
		c0.82-4.64-1.05-9.06-1.81-13.44c-0.51-2.98-0.61-6.24-1.69-9.34c-1.52-4.4-2.81-8.97-3.48-13.73c-0.51-3.61-0.88-7.22-1.36-10.82
		c-0.17-1.3-0.51-3.38-2.46-4c-0.01-0.22-0.01-0.45-0.02-0.67c-0.03-3.53-0.25-6.94-1.13-10.48c-1.31-5.26-1.89-10.76-2.69-16.15
		c-0.93-6.31-0.38-12.76-1.38-19.19c-1.08-6.97,0.68-13.96,2.2-20.89c0.46-2.11,0.23-3.78,2.65-4.37c2.47,1.37,4.58,3.2,6.75,4.97
		c3.18,2.6,3.29,2.55,4.33-1.34c2.14-8.03,4.3-16.06,6.44-24.09c3.77-14.11,7.5-28.22,11.35-42.31c0.7-2.57,0.16-3.64-2.58-4.06
		c-5.77-0.87-11.48-2.14-17.24-3.11c-27.92-4.73-55.9-8.98-84-12.47c-37.17-4.61-74.4-8.3-111.9-8.28
		c-16.43,0.01-32.82,0.71-48.97,4.16c-7.28,1.56-14.36,3.64-20.71,7.72c-1.72,1.1-2.73,2.36-3.09,4.47
		c-1.84,10.97-3.87,21.9-5.79,32.85c-2.82,16.15-5.61,32.32-8.41,48.48c2.66,1.76,1.03,4.4,1.36,6.63l-0.03,0.04
		c-0.87,0.05-1.97-0.28-2.42,0.71c-2.43,5.29-5.39,10.35-7.01,16.01c-1.14,3.97-0.99,8.32-3.51,11.91
		c-0.41,0.58-0.44,1.47-0.49,2.24c-0.24,3.51-0.68,7.02-1.06,10.49c-0.96,8.71-0.91,17.61,1.27,26.23
		c1.61,6.39,5.28,12.03,7.02,18.44c1.85,6.82,6.06,12.94,6.28,20.29c0.06,1.88,1.42,1.67,2.64,1.74l0,0
		c-0.95,6.16,2.57,11.53,3.27,17.48c0.49,4.11,2.27,8.53,3.16,12.7c1.05,4.95,2.51,10.15,1.74,15.47c-0.33,2.29,0.77,4.24,2.61,5.69
		c0.01,0.89,0.02,1.78,0.04,2.67c0,14.41,0,28.81,0,43.22h0c-0.37,0.23-1.06,0.48-1.05,0.68c0.34,4.79-2.38,8.88-3.1,13.45
		c-0.48,3.05-0.67,6.27-1.53,9.11c-2.28,7.48-5.34,14.72-8.11,22.05c-0.15,0.39-0.5,0.77-0.85,1.02c-2.71,1.92-3.31,4.62-2.92,7.7
		l0,0c-1.28-0.05-2.33,0-2.83,1.64c-0.44,1.44-1.35,2.79-2.23,4.05c-3.99,5.7-9.23,10.28-13.86,15.41
		c-5.09,5.63-11.43,9.49-17.72,13.37c-3.6,2.22-7.23,4.59-11.36,5.9c-0.62,0.2-1.32,0.26-1.72,0.93
		c-1.34,2.23,0.26,10.54,2.46,12.74c0.01,0.44,0.02,0.88,0.03,1.33c-0.17,5.79,0.04,11.39,2.31,17c1.71,4.22,2.26,9,4.62,12.97
		c1.22,2.05,0.14,4.97,1.94,6.08c1.88,1.16,2.58,2.81,3.16,4.41c1.58,4.38,5.84,7.01,7.14,11.53c0.29,1,1.55,0.61,2.42,0.69l0,0
		c-0.14,1.31,0.27,2.33,1.23,3.3c1.74,1.75,3.73,3.77,4.82,5.52c2.13,3.41,4.99,5.83,7.82,8.23c2.22,1.88,3.81,5.31,7.67,4.61
		c0.08,1.24,0.17,2.2,1.74,2.83c1.59,0.63,3.15,1.54,4.6,2.62c2.74,2.05,4.58,5.63,8.75,5.44c0.8-0.04,0.83,1.01,1.27,1.34
		c2.42,1.83,4.76,4.03,7.52,5.06c1.79,0.67,3.55,0.99,4.82,2.54c0.98,1.19,2.18,1.92,3.79,1.72c1.23,2.39,2.79,4.21,5.85,4.08
		c2.4-0.1,4.42-1.91,4.49-3.41c0.17-3.8,2.76-6.17,4.12-9.23c0.26-0.59,0.21-1.31,0.37-1.95c1.03-4.35,2.21-8.72,3.41-12.97
		c1.84-6.53,3.45-12.93,3.37-19.72l0,0c2.24-1.12,1.98-3.68,2.45-5.41c1.65-6.03,1.53-12.4,2.79-18.58
		c0.87-4.29,0.17-8.75,1.29-13.21c1.14-4.53,0.09-9.41,1.35-14.2c1.13-4.29,0.79-8.98,1.29-13.5c1.2-10.95,1.13-22.11,1.24-33.09
		c0.31-29.47,1.81-58.99-0.83-88.48c-1.29-14.35,0.24-28.79-1.08-43.27c-0.94-10.25-2.03-20.65-1.75-31.04
		c0.07-2.61-1.27-4.2-3.89-3.9c-5.42,0.63-10.57-1.24-15.89-1.44c-0.53-0.02-1.29-0.14-1.54-0.5c-1.81-2.55-4.47-2.18-7.04-2.18
		c-0.05-0.86-0.51-1.31-1.37-1.33c-0.13-1.26-1.16-1.9-1.95-2.64c-4.45-4.17-8.72-8.45-11.26-14.14c-2.55-5.72-3.17-11.92-4.2-17.97
		c-0.34-2-1.38-3.66-1.55-5.72c-0.8-9.43,2.05-18.64,1.47-28.03c-0.03-0.42,0.13-0.89,0.31-1.29c1.47-3.24,1.63-6.82,2.18-10.22
		c0.76-4.73,0.62-5,4.64-2.79c0.19,0.11,0.4,0.2,0.62,0.25c5.08,1.19,9.39,4.32,14.4,5.69c3.61,0.98,6.2,4.57,10.41,4.03
		c0.28-0.04,0.73,0.16,0.89,0.39c1.77,2.55,4.41,2.27,6.99,2.23l0.01,0.01c0.07,0.87-0.2,1.94,0.78,2.42
		c3.76,1.81,7.61,3.38,11.34,5.3c5.22,2.68,10.87,4.64,16.02,7.58c1.96,1.12,3.66,0.68,5.71,0.26c3.18-0.66,5.01-3.84,7.57-4.39
		c5.27-1.12,8.52-5.45,13.33-7.02c3.53-1.15,5.87-4.67,9.27-5.5c5.57-1.36,10.11-4.7,14.86-7.32c4.24-2.33,8.63-5.01,12.86-7.15
		c7.52-3.8,14.92-7.93,22.42-11.77c4.74-2.43,9.72-4.56,14.23-7.51c1.25-0.82,1.25-1.65,1.34-2.73l0.01-0.01
		c4.29,1.15,7.81-1.71,10.49-3.69c3.83-2.84,8.26-4.31,12.21-6.72c4.58-2.79,9.37-5.63,14.54-7.57c1.39-0.52,3.63-1.16,3.25-3.66
		l0,0c1.47-0.13,2.35,0.44,3.25,1.74c0.95,1.38,0.36,2.91,1,4.15c3.74,7.22,3.49,15.34,4.98,23.03c1.39,7.2,0.24,14.73-1.47,21.83
		c-0.65,2.67-0.75,5.57-1.96,8.3c-0.84,1.89-1.58,4.71-0.49,7.17c0.01,0.43,0.02,0.85,0.03,1.28c-0.39,1.37-2.37,0.24-2.59,1.46
		c-0.68,3.88-3.03,7.3-4.93,10.23c-3.14,4.82-6,10.14-10.59,14.04c-2.01,1.71-4.38,3.16-5.96,5.17c-3.29,4.17-7.42,7.47-11.55,10.48
		c-5.5,4.02-11.79,6.99-17.84,10.22c-6.51,3.48-13.48,5.83-20.54,7.91c-2.72,0.8-4.66,1.93-4.37,5.47
		c0.51,6.3,0.34,12.59,1.16,18.95c0.98,7.63,0.82,15.34,2.7,23c1.35,5.48,0.32,11.44,1.45,17.21c0.79,4.06,1.14,8.38,1.89,12.42
		c1.18,6.33,2.36,12.82,3.23,19.09c1.07,7.72,3.36,15.35,3.22,23.26c-0.01,0.64,0.31,1.28,0.48,1.92c1.27,4.86,2.72,9.66,3.58,14.63
		c0.64,3.71,1.71,7.34,1.37,11.16c-0.05,0.58,0.29,1.14,0.91,1.27c2.11,0.42,1.7,2.08,1.7,3.47c0.02,4.67,1.13,9.12,2.51,13.54
		c1.44,4.62,4.21,9.34,3.91,13.86c-0.45,6.77,5.63,11.12,5,17.63c-0.08,0.84,0.54,2.26,0.81,3.43c0.65,2.88,1.76,5.57,3.99,7.66l0,0
		c0.1,2.95-0.79,6.14,2.18,8.38c0.35,0.27,0.55,1.05,0.47,1.54c-0.93,5.93,3.15,10.4,4.89,15.45c2.03,5.88,3.54,11.97,6.02,17.7
		c2.09,4.83,3.74,10.04,6.16,14.49c2.59,4.76,3.54,10.39,7.39,14.52c2.31,2.48,2.53,6.06,3.93,9.06c0.72,1.55,2.61,2.26,2.7,4.14
		c0.13,2.72,1.97,4.06,4.09,5.2l0,0c-0.13,2.58-0.08,5.04,3.35,5.42c3.96,6.22,6.65,13.21,11.51,18.88
		c0.31,3.12,1.95,5.67,3.54,8.23c0.72,1.16,1.92,1.34,3.18,1.26l0,0c-0.14,1.95,0.71,3.44,1.58,5.18c1.52,3.05,4.99,4.2,6.2,7.33
		c0.45,1.18,1.27,1.87,2.39,2.56c3.2,1.99,3.33,4.08,0.74,6.34c-8.89,3.53-18.12,5.96-27.37,8.3c-15.17,3.85-30.59,6.38-46.16,7.71
		c-20.32,1.74-40.64,1.49-60.96-0.69c-20.06-2.15-39.68-6.28-58.9-12.32c-25.42-8-49.32-19.22-71.84-33.51
		c-16.75-10.63-32.31-22.74-46.68-36.37c-26.81-25.44-48.39-54.72-64.64-87.97c-12.46-25.5-21.21-52.14-26.27-80.08
		c-3.6-19.88-5.39-39.89-4.93-60.03c0.82-36.36,7.45-71.61,20.69-105.6c10.39-26.66,24.19-51.37,41.37-74.17
		c16.23-21.53,35.11-40.53,56.39-57.12c17.06-13.3,35.35-24.63,54.72-34.24c1.13-0.56,2.24-1.05,3.53-0.89
		c1.95,4.3,2.84,8.93,4.01,13.46c1.06,4.08,1.17,4.31,5.13,3.32c16.93-4.25,34.16-6.73,51.53-8.06c44.53-3.4,88.69,0.3,132.59,7.75
		c33.58,5.69,66.64,13.6,99.09,24c2.03,0.65,3.28,0.27,4.69-1.26C484.6,318.53,488.48,314.64,492.3,310.68z"/>
	<path class="st1" d="M492.3,310.68c-3.81,3.96-7.69,7.85-11.4,11.9c-1.41,1.54-2.66,1.91-4.69,1.26
		c-32.45-10.4-65.51-18.31-99.09-24c-43.9-7.44-88.06-11.15-132.59-7.75c-17.37,1.33-34.6,3.81-51.53,8.06
		c-3.96,0.99-4.07,0.77-5.13-3.32c-1.18-4.53-2.07-9.16-4.01-13.46c-1.27-7.31-3.66-14.34-5.54-21.5
		c-2.94-11.19-6.26-22.28-9.12-33.49c-0.77-3.02-2.03-3.44-4.82-3.07c-15.82,2.11-31.64,2.38-47.32-1.1
		c-30.08-6.69-48.75-25.5-57.31-54.7c-4.51-15.37-6.66-31.08-3.91-47.01c4.1-23.8,19.19-37.86,41.42-45.07
		c17.69-5.73,35.96-6.63,54.38-5.79c25.72,1.17,50.9,5.7,75.72,12.39c1.34,0.36,2.45,0.92,2.56-1.44
		c1.08-24.66,14.58-41.04,35.38-52.36c16.72-9.1,34.91-13.56,53.55-16.35c37.4-5.58,74.91-4.57,112.45-1.62
		c22.33,1.75,44.51,4.51,66.35,9.58c17.13,3.98,33.83,9.16,49.03,18.31c8.57,5.16,16.15,11.42,21.41,20.13
		c6.89,11.42,7.52,23.59,3.91,36.09c-0.88,3.05-0.18,3.22,2.57,3c27.66-2.18,55.29-2.59,82.75,2.25
		c12.34,2.17,24.32,5.55,35.28,11.87c19.08,10.99,26.63,28.23,21.77,49.7c-9.02,39.86-38.19,67.35-78.91,74.85
		c-23.64,4.35-47.23,3.59-70.85,0.29c-2.52-0.35-4.02,0.15-5.76,2.01C536.7,263.85,514.49,287.25,492.3,310.68z M237.29,263.77
		c0.69,4.96,2.71,9.51,4.18,15.18c2.33-6.14,2.98-11.5,2.49-17.03c-0.14-2.24-0.13-4.5-0.45-6.71
		c-2.42-16.85-9.35-32.04-17.52-46.74c-2.87-5.17-5.9-10.24-9.87-15.84c0.2,1.51,0.21,2.05,0.36,2.55
		c4.3,14.42,8.54,28.85,12.96,43.23C232.05,246.87,234.08,255.5,237.29,263.77z M410.7,270.09c0.64-0.45,1.35-0.82,1.9-1.36
		c24.67-24.43,49.33-48.88,73.97-73.34c0.48-0.48,1.25-0.9,0.87-2.19c-6.64,3.18-12.57,7.16-18.3,11.41
		c-24.03,17.8-43.98,39.67-62.59,62.87c-6.39,7.53-12.27,15.44-17.96,23.65c1.51,0.44,2-0.65,2.67-1.29
		c3.13-3.04,6.29-6.06,9.32-9.19C403.97,277.15,407.87,274.14,410.7,270.09z"/>
	<path class="st2" d="M414.89,850.36c2.59-2.26,2.46-4.35-0.74-6.34c-1.12-0.7-1.94-1.38-2.39-2.56c-1.21-3.13-4.68-4.28-6.2-7.33
		c-0.87-1.74-1.72-3.23-1.58-5.18c1.67-0.25,2.82,0.38,3.39,2c1.19,3.4,3.46,6.1,6.23,8.16c3,2.25,3.72,6.42,7.27,8.06
		c0.09,0.04,0.17,0.09,0.26,0.13c-0.08-0.05-0.16-0.1-0.24-0.15c1.49-0.86,2.71-2.33,4.7-2.08c0.9,0.03,1.79,0.06,2.69,0.09
		c-2.16,1.44-5.09,1.78-6.4,4.47c-0.13,0.27-0.96,0.53-1.09,0.41C418.68,848,416.86,850.59,414.89,850.36z"/>
	<path class="st3" d="M420.87,847.18c-3.55-1.64-4.27-5.81-7.27-8.06c-2.77-2.07-5.04-4.77-6.23-8.16c-0.57-1.63-1.72-2.25-3.39-2
		c0,0,0,0,0,0c-0.05-0.66,0.15-1.56-0.2-1.96c-2.2-2.47-4.38-4.92-5.43-8.15c-0.36,0.21-0.73,0.41-1.09,0.62
		c-4.86-5.67-7.54-12.66-11.51-18.88c1.41-3.37-1.56-4.03-3.35-5.42c0,0,0,0,0,0c-0.09-1.32,0.16-2.61-0.52-3.93
		c-3.86-7.42-7.9-14.76-11.31-22.39c-2.12-4.74-4.63-9.3-6.12-14.43c-1.15-3.95-3.59-7.61-4.75-11.79
		c-1.06-3.82-4.37-6.81-4.47-11.11c-0.01-0.56-0.59-1.21-1.07-1.63c-1.33-1.16-1.55-2.61-1.5-4.26c0.03-0.99,0.15-2.41-0.41-2.9
		c-2.99-2.63-2.06-6.65-3.69-9.68c-1.47-2.73-1.83-5.98-3.99-8.36c0,0,0,0,0,0c0.47-6.38-2.3-12.04-4.22-17.83
		c-1.34-4.04-1.23-8.54-3.82-12.18c-0.16-0.23-0.05-0.66-0.05-1c0.04-2.82-0.99-5.48-2.01-7.94c-2.02-4.86-2.38-10.01-3.3-15.04
		c-0.91-4.96-3.14-9.54-3.57-14.69c-0.16-1.93-0.21-4.15-0.92-6.17c-1.35-3.84-2.56-7.74-2.39-11.9c0.04-1,0.09-2.08-0.22-3
		c-2.2-6.55-3.59-13.24-3.83-20.16c-0.02-0.67,0.07-1.41-0.18-2c-2.9-6.93-3.72-14.23-3.87-21.65c-0.01-0.56,0.03-1.14-0.11-1.68
		c-1.52-5.99-2.62-12.05-2.6-18.26c0-0.56,0.16-1.22-0.07-1.67c-2.92-5.69-0.38-12.03-2.38-18.01c-1.49-4.47-0.21-9.58-1.32-14.5
		c-1.11-4.93-0.26-10.29-0.28-15.46c0-1.11,0.27-1.82,1.57-2.15c5.98-1.48,11.75-3.65,17.27-6.34c6.68-3.26,13.17-6.92,19.61-10.68
		c6.5-3.79,11.66-8.95,17.07-13.78c7.57-6.75,13.28-15.14,17.41-24.5c0.99-2.25,3.65-3.84,2.65-6.86c-0.01-0.43-0.02-0.85-0.03-1.28
		c0.89-1.28,2.1-2.44,2.62-3.86c3.2-8.58,2.79-17.76,4.19-26.65c0.88-5.62-2.02-10.93-1.39-16.54c0.02-0.21-0.02-0.46-0.11-0.66
		c-2.21-5.43-2.69-11.26-3.94-16.91c-0.45-2.05-1.92-3.45-3.67-4.03c-1.59-0.53-2.53,0.97-3.04,2.44c0,0,0,0,0,0
		c-1.53,0.06-2.98-0.18-4.43,0.99c-3.02,2.44-7.68,2.05-10.12,5.64c-0.05,0.07-0.21,0.07-0.32,0.07c-4.67,0.25-7.53,4.2-11.63,5.67
		c-2.7,0.97-4.11,3.89-7.64,4.3c-2.07,0.24-6.31,0.72-6.34,4.95c0,0-0.01,0.01-0.01,0.01c-1.31,0.1-2.93-0.56-3.86,0.58
		c-1.93,2.36-4.61,3.26-7.25,4.37c-8.91,3.78-17.07,9-25.62,13.48c-4.95,2.59-9.79,5.38-14.75,7.94c-2.13,1.1-5.2,1.22-6.54,2.86
		c-4.17,5.09-11.62,4.53-15.58,9.66c-4.85-0.26-7.27,4.48-11.42,5.57c-1.72,0.45-1.32,3.29-3.68,2.78
		c-1.99-0.43-3.39,0.68-4.63,2.11c-2.08,2.41-4.57,2.81-7.1,0.88c-2.65-2.02-6.05-1.75-8.97-3.9c-3.23-2.38-7.35-4.23-11.28-5.96
		c-2.98-1.31-5.63-3.06-9.05-2.54c0,0-0.01-0.01-0.01-0.01c-1.5-1.73-3.34-3.39-5.4-3.87c-2.38-0.56-4.3-1.11-6.53-2.54
		c-3.81-2.45-8.49-3.64-12.59-5.86c-2.32-1.25-4.94-1.97-7.24-3.1c-4.89-2.4-8.54-0.67-8.71,4.81c-0.03,0.9,0.08,1.83-0.14,2.68
		c-1.47,5.66-2.58,11.35-2.57,17.23c0.02,8.54,0.35,17.09-0.09,25.6c-0.35,6.76,4.11,12.12,4.48,18.56
		c3.96,2.61,3.5,7.93,6.81,10.99c2.68,2.48,5.31,4.94,9.04,5.71c0.87,0.02,1.32,0.47,1.37,1.33c0.2,0.38,0.31,0.96,0.62,1.11
		c6.92,3.28,14.18,5.27,21.86,5.66c1.14,0.06,2.99-0.48,3.02,1.23c0.05,2.72,1.12,5.19,1.41,7.78c0.65,5.83,0.6,11.71,1.13,17.58
		c1.14,12.52,1.04,25.19,1.41,37.79c0.82,27.76,0.46,55.56,0.19,83.34c-0.11,10.69,0.08,21.36-0.83,32.11
		c-0.94,11.04-2.58,22.19-1.81,33.38c0.07,1,0.28,2.19-0.14,3c-2.63,5.17-1.47,10.96-2.09,16.32c-0.75,6.6-2.88,13.09-2.42,20.02
		c0.18,2.8-0.38,6.29-0.74,9.45c0,0,0,0,0,0c-0.73,0.13-1.13,0.52-1.33,1.29c-1.86,7.31-2.61,14.93-5.47,21.95
		c-2.53,6.2-3.58,12.92-6.79,18.85c-0.96,1.78-2.04,3.36-4.4,1.51c-1.02-0.8-2.4-0.33-3.62-0.41c-1.61,0.2-2.82-0.53-3.79-1.72
		c-1.27-1.55-3.03-1.87-4.82-2.54c-2.76-1.03-5.1-3.22-7.52-5.06c-0.44-0.33-0.47-1.37-1.27-1.34c-4.17,0.19-6.01-3.39-8.75-5.44
		c-1.45-1.09-3.01-1.99-4.6-2.62c-1.56-0.62-1.65-1.59-1.74-2.83c0.05-1.25-0.19-1.98-1.47-2.91c-6.53-4.75-11.96-10.69-17.2-16.81
		c-0.07-0.08-0.09-0.21-0.11-0.32c-0.22-1.74-1.52-1.65-2.78-1.63c0,0,0,0,0,0c-0.12-0.76,0.03-1.73-0.39-2.26
		c-4.69-6.01-8.11-12.73-11.33-19.59c-2.43-5.18-4.91-10.39-5.71-16.05c-0.47-3.27-1.63-6.37-1.88-9.72
		c-0.1-1.35,0.07-4.13-2.27-5.07c-0.01-0.44-0.02-0.88-0.03-1.33c0-2.69-0.01-5.39,0.02-8.08c0.01-0.86-0.33-2.15,0.69-2.39
		c2.1-0.49,2.97-2.74,5.06-3.15c3.27-0.65,5.4-3.6,8.67-4.38c0.69-0.16,1.28-1.22,1.66-1.99c0.36-0.72,0.53-1.47,1.5-1.56
		c3.22-0.27,5.53-2.49,7.54-4.45c5.74-5.6,11.41-11.3,16.5-17.54c1.28-1.57,1.64-3.7,3.38-4.91c1.96-1.36,2.58-3.28,2.24-5.58
		c0,0,0,0,0,0c1.48-0.31,2.04-1.47,2.73-2.67c1.55-2.68,2.23-5.73,3.67-8.43c2.52-4.74,5.19-9.26,6.01-14.82
		c0.92-6.26,5-11.66,4.57-18.59c-0.18-2.93,0.29-6.34,0.59-9.52c0,0,0,0,0,0c1.82-1.71,2.66-3.87,2.67-6.31
		c0.04-9.62,0.18-19.24-0.09-28.85c-0.08-2.75-0.58-5.74-2.58-8.06c-0.01-0.89-0.02-1.78-0.03-2.67c-0.05-3.8,0.66-7.82-0.35-11.34
		c-1.3-4.49-1.15-9.08-2.13-13.57c-0.83-3.83-1.32-7.75-2.9-11.35c-0.87-1.98-1.21-3.92-1.44-6.04c-0.36-3.34-1.23-6.65-3.97-9.03
		c0,0,0,0,0,0c0.05-2.34-0.61-4.52-1.12-6.79c-1.91-8.52-5.56-16.4-8.6-24.48c-0.89-2.35-0.16-5.14-2.27-7.14
		c-2.01-1.9-2.76-4.84-2.69-7.24c0.23-8.78-1.1-17.56,0.95-26.39c1.25-5.39,1.72-11.03,2.86-16.52c0.41-2,2.65-2.72,2.64-4.5
		c-0.02-3.43,2.07-5.76,3.61-8.45c1.14-1.99,2.46-4.04,1.91-6.57c0,0,0.03-0.04,0.03-0.04c2.19-3.95,6.57-6.27,8.03-10.77
		c1.98-1.54,4.35-2.28,6.59-3.32c29.39-13.59,59.89-23.66,91.78-29.5c27.15-4.97,54.38-6.66,81.85-3.08
		c26.2,3.42,50.69,11.72,73.29,25.44c2.15,1.3,4.82,2.23,6.02,4.82c-0.51,4.61-0.86,9.28-1.19,13.84
		c-0.92,12.88-0.62,25.86,1.08,38.73c0.01,0.11,0,0.23,0.03,0.34c1.7,6.07,2.31,12.3,2.6,18.56c0.09,2.04,1.01,2.51,2.73,2.38
		c0.01,0.22,0.01,0.45,0.02,0.67c-1.37,8.36,2.17,16.14,3.08,24.23c0.27,2.4,0.16,5.24,1.27,7.43c2.63,5.16,2.29,10.9,3.69,16.28
		c0.45,1.71,1.12,2.84,2.75,3.38c0,0,0,0,0,0c-1.04,6.79,1.76,13.04,3.14,19.42c0.44,2.03-0.09,4.82,1.56,6.23
		c2.28,1.95,1.63,4.34,2.18,6.62c0.82,3.34,0.41,7.32,3.93,9.6l0,0c-0.62,5.9,2.49,10.98,3.62,16.5c0.72,3.51,3.57,6.14,3.47,10.19
		c-0.04,1.55-0.45,5.76,3.68,5.75c0,0,0.01,0.01,0.01,0.01c0.17,2.11-0.37,4.27,0.42,6.34c2.08,5.41,4.77,10.68,6.11,16.27
		c2.28,9.44,7.69,17.46,11.14,26.37c2.52,6.49,6.75,12.62,10.13,18.93c1.5,2.79,3.85,4.82,5.6,7.17c3.29,4.39,6.5,9.2,11.23,12.46
		c3.17,2.18,5.97,6.03,9.34,6.55c5.65,0.87,11.85,1.88,17.35-1.43c1.37-0.83,2.9-1.51,3.92-0.24c1.1,1.37,0.08,2.77-0.9,4.18
		c-2.43,3.48-3.91,7.47-5.41,11.42c0,0-0.02,0.02-0.02,0.02c-2.67,3.67-6.22,6.7-8.15,10.92c-1.11,2.44-2.39,4.77-4.54,6.45
		c-1.87,1.47-2.53,3.3-2.16,5.58c-0.02,0.43-0.05,0.87-0.07,1.3c-1.49-0.2-2.6,0.42-3.49,1.57c-3.44,4.48-6.02,9.63-10.53,13.26
		c-0.57,0.46-0.82,1.11-0.77,1.79c0.1,1.39-0.68,2.31-1.57,3.21c-3.3,3.34-6.29,7.14-8.82,10.89c-5.47,8.09-11.67,15.59-17.23,23.56
		c-1.43,2.05-3.99,2.6-4.85,5.12c-1.39,4.05-4.12,7.31-6.96,10.44c-1.48,1.64-2.98,3.18-4.2,5.14c-2.08,3.35-4.87,6.26-7.18,9.49
		c-2.03,2.83-4.49,5.92-6.9,8.66c-5.77,6.54-10.28,14.2-16.93,20.07c-0.63,0.55-1.05,1.21-0.98,2.05c0.13,1.56-0.84,2.52-1.85,3.41
		c-2.19,1.96-3.21,4.71-4.9,7c-0.02,0.42-0.03,0.84-0.05,1.27c-1.98-0.25-3.21,1.22-4.7,2.08L420.87,847.18z"/>
	<path class="st4" d="M431.16,385.7c-1.2-2.59-3.87-3.52-6.02-4.82c-22.59-13.72-47.08-22.02-73.29-25.44
		c-27.47-3.58-54.71-1.89-81.85,3.08c-31.89,5.84-62.39,15.91-91.78,29.5c-2.24,1.03-4.61,1.78-6.59,3.32
		c-3.44,0.68-6.02,3.3-9.39,4.13c2.8-16.16,5.59-32.32,8.41-48.48c1.92-10.95,3.94-21.89,5.79-32.85c0.36-2.11,1.37-3.37,3.09-4.47
		c6.35-4.08,13.43-6.17,20.71-7.72c16.15-3.45,32.54-4.15,48.97-4.16c37.5-0.03,74.73,3.67,111.9,8.28
		c28.1,3.49,56.09,7.74,84,12.47c5.76,0.98,11.47,2.24,17.24,3.11c2.74,0.42,3.28,1.49,2.58,4.06c-3.85,14.09-7.58,28.2-11.35,42.31
		c-2.15,8.03-4.3,16.06-6.44,24.09c-1.04,3.88-1.15,3.93-4.33,1.34c-2.17-1.77-4.29-3.61-6.75-4.97
		C434.74,386.98,433.28,385.75,431.16,385.7z"/>
	<path class="st2" d="M385.04,437.23c1,3.01-1.66,4.61-2.65,6.86c-4.13,9.36-9.85,17.75-17.41,24.5
		c-5.42,4.83-10.57,9.99-17.07,13.78c-6.44,3.76-12.93,7.41-19.61,10.68c-5.51,2.69-11.29,4.86-17.27,6.34
		c-1.31,0.32-1.58,1.03-1.57,2.15c0.02,5.17-0.83,10.54,0.28,15.46c1.11,4.93-0.17,10.04,1.32,14.5c2,5.98-0.54,12.32,2.38,18.01
		c0.23,0.45,0.07,1.11,0.07,1.67c-0.02,6.21,1.08,12.26,2.6,18.26c0.14,0.53,0.09,1.12,0.11,1.68c0.15,7.42,0.96,14.72,3.87,21.65
		c0.25,0.59,0.16,1.33,0.18,2c0.23,6.92,1.63,13.61,3.83,20.16c0.31,0.92,0.26,2,0.22,3c-0.17,4.17,1.04,8.07,2.39,11.9
		c0.71,2.02,0.76,4.24,0.92,6.17c0.43,5.15,2.66,9.72,3.57,14.69c0.92,5.03,1.29,10.18,3.3,15.04c1.02,2.45,2.05,5.12,2.01,7.94
		c-0.01,0.34-0.12,0.77,0.05,1c2.59,3.64,2.48,8.14,3.82,12.18c1.92,5.79,4.69,11.45,4.22,17.83c-2.23-2.08-3.34-4.78-3.99-7.66
		c-0.27-1.17-0.89-2.59-0.81-3.43c0.63-6.51-5.45-10.86-5-17.63c0.3-4.51-2.47-9.24-3.91-13.86c-1.38-4.42-2.49-8.87-2.51-13.54
		c-0.01-1.4,0.4-3.05-1.7-3.47c-0.61-0.12-0.96-0.68-0.91-1.27c0.34-3.83-0.73-7.46-1.37-11.16c-0.86-4.97-2.31-9.77-3.58-14.63
		c-0.17-0.64-0.49-1.28-0.48-1.92c0.14-7.9-2.15-15.54-3.22-23.26c-0.87-6.27-2.05-12.76-3.23-19.09c-0.75-4.03-1.1-8.36-1.89-12.42
		c-1.12-5.77-0.09-11.73-1.45-17.21c-1.89-7.66-1.73-15.36-2.7-23c-0.81-6.36-0.65-12.65-1.16-18.95c-0.29-3.54,1.65-4.67,4.37-5.47
		c7.06-2.08,14.03-4.43,20.54-7.91c6.05-3.23,12.34-6.2,17.84-10.22c4.13-3.01,8.25-6.31,11.55-10.48c1.58-2.01,3.95-3.46,5.96-5.17
		c4.6-3.9,7.46-9.22,10.59-14.04c1.9-2.92,4.25-6.35,4.93-10.23C382.66,437.46,384.65,438.59,385.04,437.23z"/>
	<path class="st2" d="M209.52,769.51c0.36-3.16,0.92-6.64,0.74-9.45c-0.45-6.93,1.67-13.42,2.42-20.02
		c0.61-5.35-0.54-11.15,2.09-16.32c0.41-0.82,0.21-2,0.14-3c-0.77-11.19,0.87-22.35,1.81-33.38c0.92-10.76,0.73-21.43,0.83-32.11
		c0.28-27.78,0.63-55.58-0.19-83.34c-0.37-12.6-0.27-25.26-1.41-37.79c-0.53-5.87-0.48-11.75-1.13-17.58
		c-0.29-2.59-1.36-5.06-1.41-7.78c-0.03-1.71-1.88-1.17-3.02-1.23c-7.68-0.39-14.94-2.38-21.86-5.66c-0.31-0.15-0.42-0.73-0.62-1.11
		c2.57,0,5.22-0.37,7.04,2.18c0.25,0.36,1.01,0.48,1.54,0.5c5.32,0.19,10.47,2.07,15.89,1.44c2.62-0.31,3.96,1.29,3.89,3.9
		c-0.28,10.39,0.81,20.79,1.75,31.04c1.33,14.47-0.2,28.91,1.08,43.27c2.64,29.48,1.14,59,0.83,88.48
		c-0.11,10.98-0.04,22.13-1.24,33.09c-0.5,4.52-0.16,9.21-1.29,13.5c-1.26,4.8-0.21,9.67-1.35,14.2c-1.12,4.46-0.42,8.93-1.29,13.21
		c-1.26,6.18-1.14,12.54-2.79,18.58C211.5,765.83,211.76,768.39,209.52,769.51z"/>
	<path class="st2" d="M425.64,843.82c1.7-2.29,2.72-5.04,4.9-7c1-0.89,1.98-1.85,1.85-3.41c-0.07-0.84,0.35-1.5,0.98-2.05
		c6.65-5.87,11.17-13.52,16.93-20.07c2.42-2.74,4.87-5.83,6.9-8.66c2.32-3.23,5.11-6.14,7.18-9.49c1.22-1.96,2.71-3.5,4.2-5.14
		c2.84-3.14,5.58-6.4,6.96-10.44c0.86-2.52,3.43-3.07,4.85-5.12c5.56-7.97,11.76-15.47,17.23-23.56c2.53-3.75,5.52-7.55,8.82-10.89
		c0.89-0.9,1.66-1.81,1.57-3.21c-0.05-0.69,0.2-1.33,0.77-1.79c4.51-3.63,7.09-8.78,10.53-13.26c0.89-1.15,2-1.77,3.49-1.57
		c-2.78,4.75-5.03,9.93-8.5,14.12c-3.69,4.45-6.93,9.25-10.73,13.57c-2.91,3.31-6.19,6.8-8.05,10.37
		c-3.45,6.63-10.02,10.94-12.37,18.23c-0.63,1.96-3.62,2.54-4.65,4.83c-1.45,3.23-3.77,6.31-6.21,8.45c-3.01,2.64-3.8,6.59-6.94,8.9
		c-1.8,1.32-3.15,3.12-3.99,5.27c-0.56,1.45-1.53,2.38-2.99,3.25c-3.02,1.78-4.51,5.23-6.42,7.98c-1.75,2.5-3.75,4.94-5.53,7.4
		c-2.87,3.99-6.01,7.88-9.67,11.39c-2.91,2.79-6.11,6.07-7.18,10.46C429.01,844.72,426.99,843.44,425.64,843.82z"/>
	<path class="st2" d="M537.74,693.89c1.5-3.95,2.98-7.95,5.41-11.42c0.98-1.41,2-2.81,0.9-4.18c-1.02-1.27-2.54-0.59-3.92,0.24
		c-5.5,3.31-11.7,2.3-17.35,1.43c-3.36-0.52-6.17-4.36-9.34-6.55c-4.74-3.26-7.95-8.07-11.23-12.46c-1.76-2.35-4.11-4.38-5.6-7.17
		c-3.38-6.31-7.61-12.44-10.13-18.93c-3.46-8.9-8.87-16.93-11.14-26.37c-1.35-5.59-4.03-10.86-6.11-16.27
		c-0.8-2.07-0.25-4.23-0.42-6.34c3.02,1.81,2.89,5.3,3.87,8.02c2.75,7.63,5.46,15.27,8.69,22.72c2.21,5.08,5.1,9.88,6.49,15.32
		c0.47,1.84,2.02,3.22,3.08,4.66c1.99,2.7,2.79,5.67,3.62,8.72c0.09,0.32,0.16,0.68,0.36,0.93c4.26,5.66,9.01,11.03,12.65,17.07
		c2.54,4.2,7.49,5.69,9.56,10.33c0.98,2.2,4.51,2.77,6.73,3.61c4.03,1.51,8.69,2.67,13.08,0.25c2.13-1.17,4.17-2.48,6.7-2.81
		c0.56-0.07,0.96-1.27,1.45-1.97c2.23,2.27,2.21,5.02,2.08,7.8c-0.05,1.14-0.63,1.78-1.38,2.68c-1.72,2.09-3.08,4.65-3.92,7.24
		C541.12,692.72,540.19,694.01,537.74,693.89z"/>
	<path class="st2" d="M209.48,429.2c3.42-0.53,6.07,1.23,9.05,2.54c3.93,1.73,8.05,3.58,11.28,5.96c2.92,2.15,6.32,1.88,8.97,3.9
		c2.53,1.93,5.02,1.53,7.1-0.88c1.24-1.44,2.63-2.55,4.63-2.11c2.36,0.51,1.96-2.33,3.68-2.78c4.15-1.09,6.56-5.83,11.42-5.57
		c3.96-5.13,11.41-4.57,15.58-9.66c1.34-1.63,4.41-1.76,6.54-2.86c4.96-2.56,9.8-5.36,14.75-7.94c8.55-4.47,16.71-9.7,25.62-13.48
		c2.64-1.12,5.31-2.01,7.25-4.37c0.94-1.14,2.55-0.48,3.86-0.58c-0.09,1.08-0.09,1.91-1.34,2.73c-4.52,2.95-9.5,5.09-14.23,7.51
		c-7.5,3.84-14.9,7.97-22.42,11.77c-4.23,2.14-8.62,4.81-12.86,7.15c-4.75,2.61-9.29,5.96-14.86,7.32c-3.4,0.83-5.74,4.35-9.27,5.5
		c-4.81,1.57-8.06,5.89-13.33,7.02c-2.56,0.54-4.38,3.73-7.57,4.39c-2.05,0.42-3.75,0.86-5.71-0.26c-5.15-2.94-10.8-4.91-16.02-7.58
		c-3.73-1.91-7.58-3.49-11.34-5.3C209.27,431.15,209.55,430.07,209.48,429.2z"/>
	<path class="st2" d="M186.53,499.4c-3.73-0.78-6.36-3.23-9.04-5.71c-3.31-3.06-2.86-8.38-6.81-10.99
		c-0.36-6.44-4.83-11.8-4.48-18.56c0.44-8.51,0.11-17.07,0.09-25.6c-0.01-5.88,1.1-11.57,2.57-17.23c0.22-0.85,0.11-1.78,0.14-2.68
		c0.17-5.48,3.82-7.21,8.71-4.81c2.31,1.13,4.92,1.85,7.24,3.1c4.1,2.22,8.79,3.41,12.59,5.86c2.23,1.44,4.15,1.98,6.53,2.54
		c2.06,0.49,3.9,2.15,5.4,3.87c-2.58,0.04-5.22,0.32-6.99-2.23c-0.16-0.23-0.61-0.42-0.89-0.39c-4.21,0.54-6.8-3.04-10.41-4.03
		c-5.01-1.37-9.32-4.5-14.4-5.69c-0.21-0.05-0.42-0.15-0.62-0.25c-4.02-2.2-3.87-1.93-4.64,2.79c-0.55,3.4-0.71,6.98-2.18,10.22
		c-0.18,0.4-0.33,0.86-0.31,1.29c0.57,9.39-2.27,18.6-1.47,28.03c0.17,2.06,1.22,3.72,1.55,5.72c1.02,6.06,1.64,12.26,4.2,17.97
		c2.54,5.68,6.82,9.97,11.26,14.14C185.37,497.5,186.4,498.14,186.53,499.4z M167.64,465.57c-0.14-0.27-0.23-0.46-0.32-0.64
		c-0.11,0.28-0.27,0.56-0.3,0.84c-0.02,0.17,0.16,0.37,0.25,0.55C167.4,466.06,167.53,465.79,167.64,465.57z"/>
	<path class="st2" d="M163.56,402.15c0.56,2.53-0.77,4.57-1.91,6.57c-1.54,2.69-3.63,5.02-3.61,8.45c0.01,1.77-2.22,2.5-2.64,4.5
		c-1.14,5.49-1.61,11.13-2.86,16.52c-2.05,8.83-0.72,17.61-0.95,26.39c-0.06,2.4,0.68,5.33,2.69,7.24c2.11,2,1.38,4.79,2.27,7.14
		c3.04,8.07,6.69,15.95,8.6,24.48c0.51,2.27,1.17,4.45,1.12,6.79c-1.22-0.07-2.58,0.14-2.64-1.74c-0.22-7.35-4.43-13.47-6.28-20.29
		c-1.74-6.42-5.41-12.06-7.02-18.44c-2.18-8.62-2.22-17.52-1.27-26.23c0.38-3.47,0.82-6.98,1.06-10.49
		c0.05-0.76,0.09-1.66,0.49-2.24c2.52-3.59,2.37-7.94,3.51-11.91c1.63-5.66,4.58-10.71,7.01-16.01
		C161.59,401.87,162.69,402.2,163.56,402.15z"/>
	<path class="st2" d="M344.57,704.68c2.16,2.38,2.52,5.63,3.99,8.36c1.64,3.03,0.7,7.05,3.69,9.68c0.56,0.5,0.44,1.92,0.41,2.9
		c-0.05,1.64,0.17,3.1,1.5,4.26c0.48,0.42,1.06,1.07,1.07,1.63c0.1,4.3,3.41,7.29,4.47,11.11c1.16,4.17,3.6,7.83,4.75,11.79
		c1.49,5.13,4,9.69,6.12,14.43c3.41,7.63,7.45,14.97,11.31,22.39c0.69,1.32,0.43,2.61,0.52,3.93c-2.12-1.14-3.97-2.48-4.09-5.2
		c-0.09-1.88-1.98-2.59-2.7-4.14c-1.39-2.99-1.61-6.58-3.93-9.06c-3.85-4.13-4.8-9.76-7.39-14.52c-2.42-4.45-4.07-9.66-6.16-14.49
		c-2.48-5.73-3.99-11.82-6.02-17.7c-1.74-5.06-5.82-9.52-4.89-15.45c0.08-0.49-0.12-1.27-0.47-1.54
		C343.77,710.82,344.67,707.63,344.57,704.68z"/>
	<path class="st2" d="M159.54,661.46c0.34,2.29-0.28,4.21-2.24,5.58c-1.74,1.21-2.1,3.34-3.38,4.91
		c-5.09,6.24-10.76,11.94-16.5,17.54c-2.01,1.96-4.32,4.18-7.54,4.45c-0.97,0.08-1.14,0.83-1.5,1.56c-0.38,0.77-0.98,1.82-1.66,1.99
		c-3.27,0.78-5.4,3.73-8.67,4.38c-2.09,0.42-2.96,2.67-5.06,3.15c-1.02,0.24-0.68,1.53-0.69,2.39c-0.04,2.69-0.02,5.39-0.02,8.08
		c-2.2-2.19-3.8-10.51-2.46-12.74c0.4-0.67,1.1-0.73,1.72-0.93c4.13-1.31,7.76-3.68,11.36-5.9c6.29-3.88,12.64-7.74,17.72-13.37
		c4.63-5.12,9.87-9.71,13.86-15.41c0.88-1.26,1.79-2.6,2.23-4.05C157.21,661.46,158.25,661.41,159.54,661.46z"/>
	<path class="st2" d="M379.69,369.74c0.51-1.47,1.45-2.97,3.04-2.44c1.74,0.58,3.21,1.98,3.67,4.03c1.25,5.65,1.73,11.48,3.94,16.91
		c0.08,0.2,0.13,0.45,0.11,0.66c-0.63,5.61,2.27,10.92,1.39,16.54c-1.4,8.89-0.99,18.06-4.19,26.65c-0.53,1.42-1.73,2.58-2.62,3.86
		c-1.09-2.47-0.35-5.29,0.49-7.17c1.21-2.73,1.31-5.62,1.96-8.3c1.72-7.1,2.87-14.62,1.47-21.83c-1.49-7.69-1.25-15.8-4.98-23.03
		c-0.64-1.24-0.05-2.77-1-4.15C382.05,370.18,381.16,369.61,379.69,369.74z"/>
	<path class="st2" d="M431.16,385.7c2.13,0.05,3.59,1.28,4.9,2.77c-2.42,0.58-2.18,2.25-2.65,4.37c-1.52,6.93-3.29,13.91-2.2,20.89
		c1,6.43,0.45,12.88,1.38,19.19c0.8,5.39,1.38,10.89,2.69,16.15c0.88,3.54,1.1,6.95,1.13,10.48c-1.72,0.14-2.64-0.34-2.73-2.38
		c-0.29-6.26-0.9-12.49-2.6-18.56c-0.03-0.11-0.01-0.22-0.03-0.34c-1.69-12.87-1.99-25.85-1.08-38.73
		C430.29,394.98,430.64,390.31,431.16,385.7z"/>
	<path class="st2" d="M187.92,812.71c1.22,0.08,2.6-0.39,3.62,0.41c2.36,1.85,3.43,0.27,4.4-1.51c3.21-5.93,4.26-12.65,6.79-18.85
		c2.86-7.02,3.6-14.64,5.47-21.95c0.2-0.78,0.59-1.16,1.33-1.29c0.09,6.79-1.53,13.19-3.37,19.72c-1.2,4.25-2.38,8.62-3.41,12.97
		c-0.15,0.65-0.1,1.37-0.37,1.95c-1.36,3.06-3.95,5.43-4.12,9.23c-0.07,1.5-2.09,3.31-4.49,3.41
		C190.7,816.92,189.15,815.1,187.92,812.71z"/>
	<path class="st2" d="M339.2,391.37c0.03-4.23,4.27-4.72,6.34-4.95c3.53-0.41,4.94-3.33,7.64-4.3c4.1-1.47,6.96-5.43,11.63-5.67
		c0.11-0.01,0.28,0,0.32-0.07c2.44-3.59,7.1-3.2,10.12-5.64c1.45-1.17,2.9-0.93,4.43-0.99c0.38,2.49-1.86,3.14-3.25,3.66
		c-5.17,1.93-9.96,4.78-14.54,7.57c-3.95,2.41-8.38,3.88-12.21,6.72C347.02,389.66,343.5,392.52,339.2,391.37z"/>
	<path class="st2" d="M447.21,511.54c-1.64-0.54-2.31-1.67-2.75-3.38c-1.4-5.38-1.06-11.12-3.69-16.28c-1.11-2.18-1-5.03-1.27-7.43
		c-0.9-8.09-4.45-15.87-3.08-24.23c1.95,0.62,2.28,2.71,2.46,4c0.48,3.6,0.86,7.21,1.36,10.82c0.67,4.76,1.96,9.33,3.48,13.73
		c1.07,3.1,1.17,6.36,1.69,9.34C446.16,502.48,448.03,506.9,447.21,511.54z"/>
	<path class="st2" d="M177.1,607.44c-0.3,3.18-0.77,6.6-0.59,9.52c0.43,6.92-3.65,12.33-4.57,18.59
		c-0.81,5.55-3.49,10.08-6.01,14.82c-1.43,2.7-2.12,5.74-3.67,8.43c-0.69,1.19-1.24,2.36-2.73,2.67c-0.39-3.08,0.21-5.78,2.92-7.7
		c0.35-0.25,0.7-0.63,0.85-1.02c2.77-7.33,5.83-14.57,8.11-22.05c0.87-2.85,1.06-6.07,1.53-9.11c0.72-4.57,3.44-8.65,3.1-13.45
		C176.04,607.92,176.73,607.67,177.1,607.44z"/>
	<path class="st2" d="M112.3,716.81c2.34,0.93,2.16,3.72,2.27,5.07c0.25,3.35,1.41,6.46,1.88,9.72c0.81,5.66,3.28,10.87,5.71,16.05
		c3.22,6.86,6.64,13.58,11.33,19.59c0.41,0.53,0.27,1.5,0.39,2.26c-0.86-0.08-2.13,0.3-2.42-0.69c-1.3-4.52-5.56-7.15-7.14-11.53
		c-0.57-1.6-1.28-3.25-3.16-4.41c-1.8-1.11-0.72-4.04-1.94-6.08c-2.36-3.97-2.92-8.75-4.62-12.97
		C112.34,728.2,112.13,722.6,112.3,716.81z"/>
	<path class="st2" d="M166.28,510.21c2.73,2.39,3.61,5.69,3.97,9.03c0.23,2.12,0.57,4.07,1.44,6.04c1.58,3.6,2.07,7.52,2.9,11.35
		c0.98,4.49,0.83,9.08,2.13,13.57c1.02,3.52,0.3,7.54,0.35,11.34c-1.84-1.45-2.94-3.4-2.61-5.69c0.77-5.32-0.69-10.51-1.74-15.47
		c-0.89-4.17-2.67-8.59-3.16-12.7C168.84,521.74,165.33,516.37,166.28,510.21z"/>
	<path class="st2" d="M458.02,553.41c-3.51-2.28-3.11-6.26-3.93-9.6c-0.56-2.28,0.09-4.67-2.18-6.62c-1.65-1.41-1.12-4.19-1.56-6.23
		c-1.37-6.39-4.17-12.63-3.14-19.42c1.94,0.62,2.35,2.73,2.47,3.99c0.61,6.41,2.46,12.51,4.39,18.54c1.44,4.5,1.99,9.21,3.71,13.64
		C458.43,549.4,457.97,551.5,458.02,553.41z"/>
	<path class="st2" d="M177.1,564.22c2,2.32,2.5,5.31,2.58,8.06c0.27,9.61,0.13,19.23,0.09,28.85c-0.01,2.44-0.85,4.6-2.67,6.31
		C177.1,593.03,177.1,578.62,177.1,564.22z"/>
	<path class="st2" d="M468.78,585.86c-4.12,0.01-3.71-4.2-3.68-5.75c0.1-4.05-2.75-6.69-3.47-10.19c-1.13-5.52-4.23-10.6-3.62-16.5
		c3.2,2.06,2.87,5.79,3.76,8.77c1.55,5.18,4.14,10.04,4.58,15.64C466.57,580.49,469.4,582.71,468.78,585.86z"/>
	<path class="st2" d="M133.88,769.51c1.25-0.01,2.55-0.11,2.78,1.63c0.01,0.11,0.04,0.24,0.11,0.32
		c5.24,6.11,10.67,12.06,17.2,16.81c1.27,0.93,1.52,1.66,1.47,2.91c-3.86,0.7-5.46-2.73-7.67-4.61c-2.84-2.41-5.7-4.82-7.82-8.23
		c-1.09-1.75-3.08-3.78-4.82-5.52C134.15,771.84,133.74,770.81,133.88,769.51z"/>
	<path class="st2" d="M522.88,716.86c-0.37-2.28,0.29-4.12,2.16-5.58c2.14-1.68,3.42-4.01,4.54-6.45c1.92-4.22,5.47-7.25,8.15-10.92
		c1.39,5.06-3.22,7.4-5.09,10.94c-1.63,3.09-4.24,5.65-5.68,8.89C526.11,715.64,524.22,715.8,522.88,716.86z"/>
	<path class="st2" d="M162.23,395.48c3.37-0.83,5.96-3.45,9.39-4.13c-1.46,4.49-5.84,6.81-8.03,10.77
		C163.26,399.88,164.9,397.24,162.23,395.48z"/>
	<path class="st2" d="M397.26,819.46c0.36-0.21,0.73-0.41,1.09-0.62c1.05,3.23,3.23,5.68,5.43,8.15c0.35,0.4,0.15,1.29,0.2,1.96
		c-1.26,0.08-2.46-0.1-3.18-1.26C399.21,825.12,397.56,822.58,397.26,819.46z"/>
	<path class="st2" d="M382.4,795.16c1.8,1.39,4.77,2.05,3.35,5.42C382.32,800.2,382.27,797.74,382.4,795.16z"/>
	<path class="st5" d="M406.55,267.49c18.61-23.2,38.56-45.07,62.59-62.87c5.74-4.25,11.66-8.23,18.3-11.41
		c0.38,1.29-0.39,1.71-0.87,2.19c-24.65,24.46-49.3,48.91-73.97,73.34c-0.55,0.54-1.26,0.91-1.9,1.36
		C409.76,268.52,407.48,269.07,406.55,267.49z"/>
	<path class="st5" d="M237.29,263.77c-3.21-8.27-5.24-16.9-7.84-25.36c-4.43-14.38-8.66-28.81-12.96-43.23
		c-0.15-0.5-0.15-1.05-0.36-2.55c3.97,5.61,7,10.68,9.87,15.84c8.17,14.7,15.09,29.89,17.52,46.74c0.32,2.21,0.31,4.47,0.45,6.71
		C241.65,262.19,239.45,262.92,237.29,263.77z"/>
	<path class="st0" d="M406.55,267.49c0.93,1.59,3.21,1.03,4.15,2.61c-2.83,4.04-6.73,7.06-10.12,10.56
		c-3.03,3.13-6.19,6.15-9.32,9.19c-0.66,0.64-1.16,1.73-2.67,1.29C394.28,282.93,400.16,275.02,406.55,267.49z"/>
	<path class="st0" d="M237.29,263.77c2.16-0.85,4.35-1.58,6.67-1.85c0.49,5.53-0.16,10.89-2.49,17.03
		C240,273.28,237.98,268.73,237.29,263.77z"/>
	<path class="st3" d="M420.89,847.16c0.08,0.05,0.16,0.1,0.24,0.15c-0.09-0.04-0.17-0.09-0.26-0.13
		C420.87,847.18,420.89,847.16,420.89,847.16z"/>
	<path class="st3" d="M167.64,465.57c-0.11,0.22-0.24,0.49-0.37,0.76c-0.09-0.18-0.27-0.38-0.25-0.55c0.03-0.29,0.19-0.56,0.3-0.84
		C167.41,465.12,167.5,465.3,167.64,465.57z"/>
</g>
</svg>
